<svg xmlns="http://www.w3.org/2000/svg" viewBox="0 0 11.5 26.51"><defs><style>.cls-1,.cls-3{fill:none;stroke:#fff;stroke-miterlimit:10;stroke-width:1.13px;}.cls-2{fill:#fff;}.cls-3{stroke-linecap:round;}</style></defs><g id="Layer_2" data-name="Layer 2"><g id="Layer_5" data-name="Layer 5"><circle class="cls-1" cx="4.45" cy="5.28" r="1.23"/><polygon class="cls-2" points="6.14 5.28 6.86 7.28 4.86 6.56 6.14 5.28"/><path class="cls-2" d="M3,.93l.82,1.46L2.39,1.57A.47.47,0,0,1,2.21.93.46.46,0,0,1,2.85.75.52.52,0,0,1,3,.93Z"/><path class="cls-2" d="M4.9.6,4.45,2.21,4,.6A.47.47,0,0,1,4.32,0,.47.47,0,0,1,4.9.34.57.57,0,0,1,4.9.6Z"/><path class="cls-2" d="M6.57,1.57l-1.46.82L5.93.93A.46.46,0,0,1,6.57.75a.48.48,0,0,1,.18.64A.52.52,0,0,1,6.57,1.57Z"/><path class="cls-2" d="M4.45,4.61a3.33,3.33,0,0,0-1.75,1A5.19,5.19,0,0,0,1.52,7.48a6.41,6.41,0,0,0,0,4.34,6.68,6.68,0,0,0,2.84,3.35,3.55,3.55,0,0,0,.92.48,3.65,3.65,0,0,0,1,.07c.84,0,1.62,0,2.44,0h.58v.57l0,2.33a6.84,6.84,0,0,1,0,1.26,4.05,4.05,0,0,1-.41,1.26A6.22,6.22,0,0,1,5,24.23.39.39,0,0,1,4.5,24a.4.4,0,0,1,.26-.49A5.33,5.33,0,0,0,8,20.7a3.72,3.72,0,0,0,.28-2.07l-.05-2.36.57.56h0c-.8,0-1.63,0-2.4,0A4.5,4.5,0,0,1,5,16.74a4.72,4.72,0,0,1-1.23-.62A7.8,7.8,0,0,1,.45,12.21a7.51,7.51,0,0,1,0-5.14A6.53,6.53,0,0,1,1.89,4.86,4.45,4.45,0,0,1,4.25,3.5h0a.56.56,0,0,1,.19,1.11Z"/><path class="cls-3" d="M3.79,6.32A5.41,5.41,0,0,0,3,9.14a5.22,5.22,0,0,0,2,4,4.68,4.68,0,0,0,2,.76H9.81"/><path class="cls-2" d="M.57,9.12c1,0,2.08-.09,3.2,0A6.46,6.46,0,0,1,7,10.17,9.77,9.77,0,0,1,11,15.27a9.38,9.38,0,0,1-.25,6.5,9.27,9.27,0,0,1-4.43,4.7.37.37,0,0,1-.49-.17A.36.36,0,0,1,6,25.82a8.43,8.43,0,0,0,4-4.37,8.5,8.5,0,0,0,.14-5.88A8.74,8.74,0,0,0,6.43,11a5.43,5.43,0,0,0-2.73-.86c-1,0-2,.06-3.13.07A.57.57,0,0,1,0,9.69a.56.56,0,0,1,.56-.57Z"/><path class="cls-2" d="M6.71,16.34l0,1.71a7.45,7.45,0,0,1-.12,1.83,3.32,3.32,0,0,1-2.91,2.3.37.37,0,0,1-.39-.34.37.37,0,0,1,.32-.4,2.61,2.61,0,0,0,1.33-.6,2.31,2.31,0,0,0,.75-1.19,7.61,7.61,0,0,0,0-1.58l-.07-1.71a.56.56,0,0,1,.54-.59.56.56,0,0,1,.59.54Z"/></g></g></svg>