<svg xmlns="http://www.w3.org/2000/svg" viewBox="0 0 50.82 117.11"><defs><style>.cls-1,.cls-3{fill:none;stroke:#141414;stroke-miterlimit:10;stroke-width:5px;}.cls-2{fill:#141414;}.cls-3{stroke-linecap:round;}</style></defs><g id="Layer_2" data-name="Layer 2"><g id="Layer_5" data-name="Layer 5"><circle class="cls-1" cx="19.64" cy="23.33" r="5.43"/><polygon class="cls-2" points="27.12 23.31 30.31 32.16 21.46 28.96 27.12 23.31"/><path class="cls-2" d="M13.37,4.1,17,10.55,10.54,6.93a2.08,2.08,0,0,1,2-3.63A2.12,2.12,0,0,1,13.37,4.1Z"/><path class="cls-2" d="M21.64,2.64l-2,7.13-2-7.13a2.08,2.08,0,0,1,4-1.12A2,2,0,0,1,21.64,2.64Z"/><path class="cls-2" d="M29,6.93l-6.46,3.62L26.18,4.1a2.08,2.08,0,1,1,3.62,2A2,2,0,0,1,29,6.93Z"/><path class="cls-2" d="M19.66,20.38A14.59,14.59,0,0,0,11.93,25,23.45,23.45,0,0,0,6.69,33l-.41,1.14c-.14.38-.22.77-.34,1.16-.24.77-.36,1.58-.53,2.37A29.62,29.62,0,0,0,5,42.61a28.73,28.73,0,0,0,1.66,9.64,27.1,27.1,0,0,0,5,8.39,31.2,31.2,0,0,0,3.53,3.46c.63.53,1.29,1,2,1.52l1,.71,1.1.73a15.93,15.93,0,0,0,4.07,2.09,15.64,15.64,0,0,0,4.55.3c.86,0,1.78-.07,2.75-.08H41.2l0,2.5-.09,5.2c0,1.73-.09,3.47-.06,5.12a35.36,35.36,0,0,1-.22,5.54A18.4,18.4,0,0,1,39,93.31,27.53,27.53,0,0,1,31.9,102a27.14,27.14,0,0,1-9.84,5.1,1.78,1.78,0,0,1-1-3.41h0A23.52,23.52,0,0,0,35.11,91.44a14,14,0,0,0,1.26-4.29,31.09,31.09,0,0,0,0-4.83c-.09-1.8-.08-3.53-.12-5.25l-.09-5.2,2.5,2.5h-8c-.81,0-1.68,0-2.59.08A20.2,20.2,0,0,1,22,74a20.19,20.19,0,0,1-5.44-2.72l-1.13-.74-1.18-.82c-.77-.55-1.53-1.14-2.26-1.75a34.58,34.58,0,0,1-4.09-4A32.23,32.23,0,0,1,2,54,33.72,33.72,0,0,1,0,42.64a34.85,34.85,0,0,1,.45-5.76c.2-1,.35-1.91.64-2.84.13-.47.24-.95.4-1.41L2,31.25A28.51,28.51,0,0,1,8.33,21.5,23.44,23.44,0,0,1,13,17.72a16.85,16.85,0,0,1,5.81-2.26h0a2.5,2.5,0,0,1,.88,4.92Z"/><path class="cls-3" d="M16.76,27.93a23.22,23.22,0,0,0-3.67,12.44c0,1.05.25,11.76,8.88,17.76a20.25,20.25,0,0,0,8.64,3.36H43.33"/><path class="cls-2" d="M2.52,40.27c4.49,0,9.21-.39,14.12-.05a29.5,29.5,0,0,1,7.42,1.4,30.13,30.13,0,0,1,6.76,3.32,48.35,48.35,0,0,1,5.82,4.41,41.8,41.8,0,0,1,5.11,5.28,42.67,42.67,0,0,1,4.11,6.11,43.7,43.7,0,0,1,2.92,6.74,41.38,41.38,0,0,1-1.12,28.68,40.06,40.06,0,0,1-7.91,12.18,41.3,41.3,0,0,1-11.65,8.59,1.61,1.61,0,0,1-1.48-2.86l0,0A38.09,38.09,0,0,0,37.23,106a36.7,36.7,0,0,0,7-11.22,37.55,37.55,0,0,0,.62-26,39.64,39.64,0,0,0-2.72-6,38.11,38.11,0,0,0-3.77-5.4,36.63,36.63,0,0,0-4.65-4.67,45.18,45.18,0,0,0-5.36-3.93,26,26,0,0,0-5.78-2.74A25.16,25.16,0,0,0,16.33,45c-4.4-.25-9,.23-13.81.28a2.5,2.5,0,1,1,0-5Z"/><path class="cls-2" d="M29.64,72.2l-.12,7.54c0,1.25,0,2.43,0,3.8A16.82,16.82,0,0,1,29,87.82a13.84,13.84,0,0,1-5,7.12,15.09,15.09,0,0,1-7.87,3,1.63,1.63,0,0,1-.37-3.23h0a11.71,11.71,0,0,0,5.91-2.67,10.93,10.93,0,0,0,2.09-2.42A9.05,9.05,0,0,0,25,86.82c.43-1.93.06-4.35,0-7l-.31-7.58a2.5,2.5,0,1,1,5-.2Z"/></g></g></svg>